<svg width="16" height="22" viewBox="0 0 16 22" fill="none" xmlns="http://www.w3.org/2000/svg">
<path d="M7.59703 20.3301L7.0125 20.8L7.59442 20.3269C6.51833 19.0034 4.7873 16.7419 3.32962 14.3698C2.60066 13.1836 1.94888 11.9839 1.48142 10.8699C1.00883 9.74375 0.75 8.76385 0.75 8C0.75 3.99588 3.99588 0.75 8 0.75C12.0026 0.75 15.25 3.99598 15.25 8C15.25 8.7628 14.9895 9.74203 14.5139 10.8685C14.0436 11.9825 13.3884 13.1823 12.6569 14.3689C11.1946 16.741 9.46344 19.0029 8.4024 20.3308C8.19001 20.5941 7.80913 20.5939 7.59703 20.3301ZM8 11.4167C9.88505 11.4167 11.4167 9.88505 11.4167 8C11.4167 6.11495 9.88505 4.58333 8 4.58333C6.11495 4.58333 4.58333 6.11495 4.58333 8C4.58333 9.88505 6.11495 11.4167 8 11.4167Z" stroke="#212121" stroke-width="1.5"/>
</svg>
