<svg width="19" height="18" viewBox="0 0 19 18" fill="none" xmlns="http://www.w3.org/2000/svg">
<path fill-rule="evenodd" clip-rule="evenodd" d="M5.78605 2.20087C6.0189 1.05843 7.03576 0.25 8.2 0.25H11.05C12.2142 0.25 13.2302 1.05843 13.464 2.20087C13.4897 2.32667 13.5571 2.44015 13.6551 2.52304C13.7532 2.60593 13.8763 2.65341 14.0047 2.65785H14.0334C15.257 2.71192 16.1971 2.86192 16.982 3.37733C17.4765 3.70174 17.902 4.1186 18.2334 4.6061C18.6459 5.21134 18.8273 5.90727 18.9145 6.74797C19 7.57035 19 8.60029 19 9.90494V9.97907C19 11.2837 19 12.3145 18.9145 13.136C18.8273 13.9767 18.6459 14.6727 18.2334 15.2788C17.901 15.7666 17.4758 16.1841 16.982 16.5076C16.3689 16.9096 15.6651 17.0875 14.8122 17.1721C13.9767 17.2558 12.9294 17.2558 11.5985 17.2558H7.65145C6.32064 17.2558 5.27326 17.2558 4.43779 17.1721C3.58488 17.0875 2.8811 16.9105 2.26802 16.5076C1.77416 16.1838 1.34892 15.766 1.01657 15.2779C0.60407 14.6727 0.422674 13.9767 0.335465 13.136C0.25 12.3145 0.25 11.2837 0.25 9.97907V9.90494C0.25 8.60029 0.25 7.57035 0.335465 6.74797C0.422674 5.90727 0.60407 5.21134 1.01657 4.6061C1.34892 4.11801 1.77416 3.70017 2.26802 3.37645C3.05291 2.86192 3.99302 2.71192 5.21657 2.65872L5.2314 2.65785H5.24535C5.37368 2.65341 5.4968 2.60593 5.59487 2.52304C5.69295 2.44015 5.76028 2.32667 5.78605 2.20087ZM8.2 1.55814C7.64186 1.55814 7.17355 1.94448 7.06802 2.46163C6.89796 3.29884 6.15494 3.95814 5.26105 3.96599C4.08546 4.01831 3.45581 4.16221 2.98488 4.47093C2.63507 4.70049 2.33373 4.99649 2.09797 5.34215C1.85727 5.69535 1.7125 6.14797 1.63576 6.88314C1.55901 7.62965 1.55814 8.59244 1.55814 9.94244C1.55814 11.2924 1.55814 12.2544 1.63663 13.0009C1.7125 13.736 1.85727 14.1887 2.09884 14.5427C2.33256 14.8863 2.63343 15.1828 2.98576 15.4131C3.34942 15.652 3.81512 15.7959 4.56773 15.8709C5.32994 15.9468 6.31192 15.9477 7.68721 15.9477H11.5628C12.9372 15.9477 13.9192 15.9477 14.6823 15.8709C15.4349 15.7959 15.9006 15.6529 16.2642 15.414C16.6166 15.1828 16.9183 14.8863 17.152 14.5419C17.3927 14.1887 17.5375 13.736 17.6142 13.0009C17.691 12.2544 17.6919 11.2916 17.6919 9.94244C17.6919 8.59244 17.6919 7.62965 17.6134 6.88314C17.5375 6.14797 17.3927 5.69535 17.1512 5.34215C16.9157 4.99603 16.6143 4.69969 16.2642 4.47006C15.7951 4.16221 15.1654 4.01831 13.9881 3.96599C13.0951 3.95727 12.352 3.29971 12.182 2.46163C12.1262 2.20372 11.9831 1.97299 11.7768 1.80838C11.5706 1.64377 11.3139 1.55538 11.05 1.55814H8.2ZM9.625 7.66279C9.10459 7.66279 8.60549 7.86952 8.23751 8.23751C7.86952 8.60549 7.66279 9.10459 7.66279 9.625C7.66279 10.1454 7.86952 10.6445 8.23751 11.0125C8.60549 11.3805 9.10459 11.5872 9.625 11.5872C10.1454 11.5872 10.6445 11.3805 11.0125 11.0125C11.3805 10.6445 11.5872 10.1454 11.5872 9.625C11.5872 9.10459 11.3805 8.60549 11.0125 8.23751C10.6445 7.86952 10.1454 7.66279 9.625 7.66279ZM6.35465 9.625C6.35465 8.75765 6.6992 7.92582 7.31251 7.31251C7.92582 6.6992 8.75765 6.35465 9.625 6.35465C10.4924 6.35465 11.3242 6.6992 11.9375 7.31251C12.5508 7.92582 12.8953 8.75765 12.8953 9.625C12.8953 10.4924 12.5508 11.3242 11.9375 11.9375C11.3242 12.5508 10.4924 12.8953 9.625 12.8953C8.75765 12.8953 7.92582 12.5508 7.31251 11.9375C6.6992 11.3242 6.35465 10.4924 6.35465 9.625ZM14.2035 7.00872C14.2035 6.83525 14.2724 6.66889 14.3951 6.54622C14.5177 6.42356 14.6841 6.35465 14.8576 6.35465H15.7297C15.9031 6.35465 16.0695 6.42356 16.1921 6.54622C16.3148 6.66889 16.3837 6.83525 16.3837 7.00872C16.3837 7.18219 16.3148 7.34856 16.1921 7.47122C16.0695 7.59388 15.9031 7.66279 15.7297 7.66279H14.8576C14.6841 7.66279 14.5177 7.59388 14.3951 7.47122C14.2724 7.34856 14.2035 7.18219 14.2035 7.00872Z" fill="black"/>
</svg>
