<svg width="23" height="22" viewBox="0 0 23 22" fill="none" xmlns="http://www.w3.org/2000/svg">
<path d="M0.675308 0.785546C0.675308 0.577206 0.75807 0.377399 0.905389 0.230081C1.05271 0.0827624 1.25251 0 1.46085 0H2.14899C3.29118 0 3.94789 0.743126 4.3281 1.48468C4.58733 1.99214 4.77429 2.61115 4.92982 3.14847H21.1042C21.347 3.14854 21.5864 3.20487 21.8037 3.31303C22.0211 3.42119 22.2104 3.57825 22.3568 3.77187C22.5033 3.96549 22.6028 4.19041 22.6477 4.42899C22.6926 4.66756 22.6816 4.91329 22.6156 5.1469L20.2653 13.4344C20.0783 14.0919 19.682 14.6705 19.1365 15.0825C18.591 15.4945 17.9261 15.7173 17.2425 15.7172H9.2629C8.57362 15.7174 7.90339 15.491 7.35546 15.0728C6.80753 14.6547 6.41231 14.0679 6.23069 13.403L5.22205 9.70306C5.21626 9.68648 5.21102 9.66971 5.20634 9.65279L3.58654 4.15868L3.42943 3.62922C3.27232 3.08562 3.13407 2.60487 2.92668 2.2011C2.67688 1.71406 2.4475 1.57266 2.14742 1.57266H1.45928C1.25094 1.57266 1.05114 1.4899 0.903817 1.34258C0.756499 1.19526 0.673737 0.995457 0.673737 0.787117L0.675308 0.785546ZM6.72087 9.22859L7.74679 12.9929C7.83775 13.3252 8.03542 13.6184 8.30937 13.8274C8.58332 14.0363 8.91836 14.1494 9.2629 14.1493H17.244C17.5857 14.1489 17.9179 14.0372 18.1903 13.8311C18.4628 13.625 18.6606 13.3357 18.7539 13.0071L21.1042 4.71956H5.3933L6.72087 9.22702V9.22859ZM11.6777 19.6434C11.6777 20.2684 11.4294 20.8678 10.9874 21.3098C10.5455 21.7517 9.94604 22 9.32103 22C8.69601 22 8.09659 21.7517 7.65463 21.3098C7.21268 20.8678 6.96439 20.2684 6.96439 19.6434C6.96439 19.0183 7.21268 18.4189 7.65463 17.977C8.09659 17.535 8.69601 17.2867 9.32103 17.2867C9.94604 17.2867 10.5455 17.535 10.9874 17.977C11.4294 18.4189 11.6777 19.0183 11.6777 19.6434ZM10.1066 19.6434C10.1066 19.435 10.0238 19.2352 9.87649 19.0879C9.72917 18.9406 9.52937 18.8578 9.32103 18.8578C9.11269 18.8578 8.91288 18.9406 8.76556 19.0879C8.61824 19.2352 8.53548 19.435 8.53548 19.6434C8.53548 19.8517 8.61824 20.0515 8.76556 20.1988C8.91288 20.3461 9.11269 20.4289 9.32103 20.4289C9.52937 20.4289 9.72917 20.3461 9.87649 20.1988C10.0238 20.0515 10.1066 19.8517 10.1066 19.6434ZM19.5331 19.6434C19.5331 20.2684 19.2848 20.8678 18.8429 21.3098C18.4009 21.7517 17.8015 22 17.1765 22C16.5515 22 15.952 21.7517 15.5101 21.3098C15.0681 20.8678 14.8198 20.2684 14.8198 19.6434C14.8198 19.0183 15.0681 18.4189 15.5101 17.977C15.952 17.535 16.5515 17.2867 17.1765 17.2867C17.8015 17.2867 18.4009 17.535 18.8429 17.977C19.2848 18.4189 19.5331 19.0183 19.5331 19.6434ZM17.962 19.6434C17.962 19.435 17.8793 19.2352 17.732 19.0879C17.5846 18.9406 17.3848 18.8578 17.1765 18.8578C16.9681 18.8578 16.7683 18.9406 16.621 19.0879C16.4737 19.2352 16.3909 19.435 16.3909 19.6434C16.3909 19.8517 16.4737 20.0515 16.621 20.1988C16.7683 20.3461 16.9681 20.4289 17.1765 20.4289C17.3848 20.4289 17.5846 20.3461 17.732 20.1988C17.8793 20.0515 17.962 19.8517 17.962 19.6434Z" fill="#000"/>
</svg>
