<svg width="68" height="69" viewBox="0 0 68 69" fill="none" xmlns="http://www.w3.org/2000/svg">
<rect width="68" height="68.0465" rx="34" fill="#01B763" fill-opacity="0.1"/>
<path d="M44.1437 29.7518C43.5916 28.4342 42.7885 27.2366 41.7791 26.2258C40.7727 25.2132 39.5772 24.4081 38.2605 23.8563C36.9117 23.2882 35.4624 22.997 33.9988 23H33.9496C32.461 23.0074 31.0216 23.3027 29.6658 23.8834C28.3604 24.4409 27.1762 25.2474 26.1792 26.2578C25.1796 27.2663 24.3857 28.4597 23.8417 29.7714C23.2771 31.1355 22.991 32.5987 23.0002 34.0749C23.0076 35.7825 23.416 37.4779 24.1788 38.9936V42.7336C24.1788 43.3586 24.6857 43.8654 25.3082 43.8654H29.0433C30.5661 44.6338 32.2465 45.0381 33.9521 45.0465H34.0038C35.4752 45.0465 36.8998 44.7611 38.2433 44.2025C39.5533 43.6573 40.7443 42.8616 41.7496 41.8601C42.7633 40.8537 43.5605 39.6776 44.1191 38.3661C44.6973 37.0079 44.9926 35.5636 44.9999 34.0725C45.0049 32.574 44.7145 31.1198 44.1437 29.7518ZM29.0876 35.2043C28.438 35.2043 27.909 34.6753 27.909 34.0233C27.909 33.3712 28.438 32.8422 29.0876 32.8422C29.7372 32.8422 30.2662 33.3712 30.2662 34.0233C30.2662 34.6753 29.7396 35.2043 29.0876 35.2043ZM33.9988 35.2043C33.3493 35.2043 32.8202 34.6753 32.8202 34.0233C32.8202 33.3712 33.3493 32.8422 33.9988 32.8422C34.6484 32.8422 35.1774 33.3712 35.1774 34.0233C35.1774 34.6753 34.6484 35.2043 33.9988 35.2043ZM38.9101 35.2043C38.2605 35.2043 37.7315 34.6753 37.7315 34.0233C37.7315 33.3712 38.2605 32.8422 38.9101 32.8422C39.5597 32.8422 40.0887 33.3712 40.0887 34.0233C40.0887 34.6753 39.5597 35.2043 38.9101 35.2043Z" fill="#01B763"/>
</svg>
