<svg width="16" height="20" viewBox="0 0 16 20" fill="none" xmlns="http://www.w3.org/2000/svg">
<path d="M2.83048 8.94975L2.82925 8.93744L2.8294 8.93743C2.82441 8.87089 2.80615 8.80603 2.77569 8.74666L3.22058 8.51846L2.77569 8.74666C2.74524 8.68729 2.70321 8.63462 2.65209 8.59175L2.95884 8.22595L2.65208 8.59175C2.60096 8.54887 2.54177 8.51666 2.478 8.49702C2.41423 8.47738 2.34718 8.4707 2.28079 8.47737C2.2144 8.48405 2.15002 8.50394 2.09144 8.53588C2.03286 8.56783 1.98126 8.61117 1.93969 8.66337L1.54858 8.35187L1.93969 8.66337C1.89812 8.71556 1.86742 8.77555 1.8494 8.83979C1.83137 8.90403 1.82639 8.97123 1.83474 9.03743L1.83635 9.05023L1.83619 9.05025L2.71616 17.85C2.76161 18.3022 2.97337 18.7213 3.31038 19.0262C3.64737 19.3311 4.08558 19.4999 4.54 19.5C4.54002 19.5 4.54004 19.5 4.54006 19.5H11.46C12.4031 19.5 13.1906 18.7867 13.2838 17.8492L13.2838 17.8489L14.163 9.05704C14.1707 8.92915 14.129 8.80308 14.0464 8.70495C13.9626 8.60535 13.8432 8.54238 13.7136 8.52944C13.584 8.5165 13.4545 8.55461 13.3526 8.63567C13.2522 8.71554 13.1864 8.83089 13.1687 8.95781L12.2895 17.7498L12.2895 17.75C12.2688 17.9557 12.1724 18.1464 12.019 18.285C11.8657 18.4236 11.6662 18.5002 11.4595 18.5M2.83048 8.94975L11.46 18M2.83048 8.94975L3.71048 17.7498L3.71051 17.75C3.73118 17.9557 3.82757 18.1464 3.98096 18.285C4.13434 18.4236 4.33377 18.5002 4.54051 18.5M2.83048 8.94975L4.54 18M11.4595 18.5L11.46 18M11.4595 18.5H11.46V18M11.4595 18.5H4.54051M11.46 18H4.54M4.54051 18.5L4.54 18M4.54051 18.5H4.54V18M10 4.5H10.5V4V2.33333C10.5 2.11232 10.4122 1.90036 10.2559 1.74408C10.0996 1.5878 9.88768 1.5 9.66667 1.5H6.33333C6.11232 1.5 5.90036 1.5878 5.74408 1.74408C5.5878 1.90036 5.5 2.11232 5.5 2.33333V4V4.5H6H10ZM11.5 4V4.5H12H15C15.1326 4.5 15.2598 4.55268 15.3536 4.64645C15.4473 4.74022 15.5 4.86739 15.5 5C15.5 5.13261 15.4473 5.25979 15.3536 5.35355C15.2598 5.44732 15.1326 5.5 15 5.5H1C0.867392 5.5 0.740214 5.44732 0.646446 5.35355C0.552679 5.25979 0.5 5.13261 0.5 5C0.5 4.86739 0.552678 4.74022 0.646447 4.64645C0.740214 4.55268 0.867391 4.5 1 4.5H4H4.5V4V2.33333C4.5 1.32148 5.32148 0.5 6.33333 0.5H9.66667C10.6785 0.5 11.5 1.32148 11.5 2.33333V4Z" stroke="#000"/>
</svg>
