<svg width="16" height="17" viewBox="0 0 16 17" fill="none" xmlns="http://www.w3.org/2000/svg">
<path d="M7.55556 0C3.38111 0 0 1.69056 0 3.77778C0 5.865 3.38111 7.55556 7.55556 7.55556C11.73 7.55556 15.1111 5.865 15.1111 3.77778C15.1111 1.69056 11.73 0 7.55556 0ZM0 5.66667V8.5C0 10.5872 3.38111 12.2778 7.55556 12.2778C11.73 12.2778 15.1111 10.5872 15.1111 8.5V5.66667C15.1111 7.75389 11.73 9.44444 7.55556 9.44444C3.38111 9.44444 0 7.75389 0 5.66667ZM0 10.3889V13.2222C0 15.3094 3.38111 17 7.55556 17C11.73 17 15.1111 15.3094 15.1111 13.2222V10.3889C15.1111 12.4761 11.73 14.1667 7.55556 14.1667C3.38111 14.1667 0 12.4761 0 10.3889Z" fill="black"/>
</svg>
