<svg width="14" height="19" viewBox="0 0 14 19" fill="none" xmlns="http://www.w3.org/2000/svg">
<path d="M13.1252 16.4727H0.878447C0.646443 16.4727 0.423942 16.5648 0.259891 16.7289C0.0958398 16.8929 0.00367662 17.1154 0.00367662 17.3475C0.00367662 17.5795 0.0958398 17.802 0.259891 17.966C0.423942 18.1301 0.646443 18.2222 0.878447 18.2222H13.1252C13.3572 18.2222 13.5797 18.1301 13.7438 17.966C13.9078 17.802 14 17.5795 14 17.3475C14 17.1154 13.9078 16.8929 13.7438 16.7289C13.5797 16.5648 13.3572 16.4727 13.1252 16.4727ZM0.878447 14.7231H0.957176L4.60497 14.3907C5.00456 14.3509 5.37829 14.1749 5.66344 13.8921L13.5364 6.01918C13.8419 5.69636 14.0071 5.26557 13.9956 4.82121C13.9841 4.37685 13.797 3.95516 13.4751 3.64855L11.0783 1.25168C10.7654 0.957841 10.3555 0.78924 9.92648 0.77795C9.49745 0.766659 9.07922 0.913467 8.75138 1.19045L0.878447 9.06338C0.595691 9.34852 0.419634 9.72226 0.379828 10.1218L0.00367662 13.7696C-0.00810745 13.8978 0.00851788 14.0269 0.0523674 14.1479C0.0962169 14.2688 0.166211 14.3786 0.25736 14.4695C0.339099 14.5505 0.436037 14.6147 0.542617 14.6582C0.649197 14.7017 0.763321 14.7238 0.878447 14.7231ZM9.86234 2.47636L12.2505 4.86448L10.5009 6.57028L8.15653 4.2259L9.86234 2.47636Z" fill="#01B763"/>
</svg>
