<svg width="15" height="15" viewBox="0 0 15 15" fill="none" xmlns="http://www.w3.org/2000/svg">
<path d="M7.43118 9.53096C7.94217 9.53096 8.43224 9.32797 8.79357 8.96664C9.1549 8.60531 9.35789 8.11525 9.35789 7.60425C9.35789 7.54782 9.35531 7.49191 9.35049 7.43669L7.26362 9.52357C7.31884 9.52838 7.37458 9.53096 7.43118 9.53096ZM13.8086 1.64451L13.0737 0.910291C13.0479 0.884501 13.0129 0.870014 12.9764 0.870014C12.9399 0.870014 12.9049 0.884501 12.8791 0.910291L10.9985 2.79142C9.96108 2.26123 8.7949 1.99613 7.49999 1.99613C4.19361 1.99613 1.72672 3.71813 0.0993381 7.16214C0.0339251 7.30065 0 7.45193 0 7.60511C0 7.75829 0.0339251 7.90957 0.0993381 8.04808C0.749604 9.41777 1.53262 10.5156 2.44838 11.3416L0.628497 13.1608C0.602707 13.1866 0.58822 13.2216 0.58822 13.258C0.58822 13.2945 0.602707 13.3295 0.628497 13.3553L1.36288 14.0897C1.38869 14.1155 1.42368 14.13 1.46017 14.13C1.49665 14.13 1.53164 14.1155 1.55745 14.0897L13.8086 1.83924C13.8214 1.82646 13.8315 1.81128 13.8385 1.79458C13.8454 1.77787 13.849 1.75996 13.849 1.74187C13.849 1.72379 13.8454 1.70588 13.8385 1.68917C13.8315 1.67247 13.8214 1.65729 13.8086 1.64451ZM4.40348 7.60425C4.40343 7.08129 4.53884 6.56724 4.79651 6.11217C5.05418 5.6571 5.42533 5.27653 5.87379 5.00753C6.32226 4.73854 6.83276 4.59029 7.35555 4.57722C7.87834 4.56416 8.3956 4.68673 8.85695 4.933L8.02055 5.7694C7.68323 5.66139 7.32269 5.64838 6.97847 5.7318C6.63425 5.81522 6.31966 5.99184 6.06921 6.24229C5.81877 6.49273 5.64215 6.80732 5.55873 7.15154C5.47531 7.49576 5.48832 7.85631 5.59632 8.19362L4.75992 9.03002C4.52521 8.59148 4.40275 8.10165 4.40348 7.60425Z" fill="#9E9E9E"/>
<path d="M14.9008 7.16057C14.2953 5.88527 13.5746 4.84536 12.7386 4.04084L10.259 6.52063C10.468 7.06701 10.5144 7.66223 10.3924 8.23438C10.2704 8.80653 9.98542 9.33112 9.57176 9.74478C9.1581 10.1584 8.63351 10.4435 8.06136 10.5654C7.48921 10.6874 6.89399 10.641 6.3476 10.432L4.24438 12.5352C5.22013 12.9868 6.3054 13.2125 7.50019 13.2125C10.8066 13.2125 13.2735 11.4905 14.9008 8.04652C14.9663 7.90801 15.0002 7.75673 15.0002 7.60354C15.0002 7.45036 14.9663 7.29908 14.9008 7.16057Z" fill="#9E9E9E"/>
</svg>
