<svg width="21" height="20" viewBox="0 0 21 20" fill="none" xmlns="http://www.w3.org/2000/svg">
<path d="M19.5895 7.12616L17.0122 9.70346C17.0119 9.70369 17.0117 9.70393 17.0115 9.70416C16.3738 10.3329 15.3333 10.333 14.6956 9.70429C14.6953 9.70402 14.695 9.70374 14.6947 9.70346L13.2994 8.30811L13.0342 8.04295L12.7691 8.30811L8.20603 12.8711L7.94086 13.1363L8.20603 13.4015L10.7551 15.9505L9.6055 17.1001C9.60511 17.1005 9.60472 17.1009 9.60434 17.1012C7.1635 19.4976 5.14562 19.7959 3.77651 19.5574C3.0802 19.4361 2.52823 19.1722 2.15062 18.9385C1.96211 18.8218 1.81833 18.7135 1.72325 18.6359C1.67577 18.5971 1.64059 18.5661 1.61823 18.5458C1.60705 18.5356 1.59909 18.5281 1.5944 18.5236L1.59029 18.5197L1.58995 18.5193L1.58985 18.5192L1.58971 18.5191L1.58944 18.5188L1.58885 18.5182L1.58859 18.518L1.58842 18.5178L1.58835 18.5177L1.58802 18.5174L1.58392 18.5132C1.57934 18.5085 1.57168 18.5005 1.56131 18.4893C1.54055 18.4669 1.50898 18.4317 1.46946 18.3841C1.39034 18.289 1.27992 18.1451 1.1609 17.9565C0.922454 17.5787 0.652818 17.0269 0.52699 16.331C0.279765 14.9639 0.571742 12.9476 2.9871 10.5071L4.14703 9.36352L6.71805 11.9437L6.98321 12.2098L7.24885 11.9441L11.8219 7.37104L12.0871 7.10587L11.8219 6.8407L10.4065 5.42527C10.4062 5.425 10.4059 5.42473 10.4057 5.42446C9.77702 4.78674 9.77702 3.74633 10.4057 3.10862C10.4059 3.10835 10.4062 3.10808 10.4065 3.10781L12.9842 0.530144L19.5895 7.12616ZM15.5632 8.77814L15.8265 9.04143L16.0916 8.78001L17.5188 7.37291L17.7878 7.10776L17.5207 6.8407L13.2692 2.58924L13.0041 2.32408L12.7389 2.58924L11.3218 4.0064L11.0566 4.27156L11.3218 4.53673L12.7289 5.94383L14.1762 7.39114L15.5632 8.77814Z" stroke="#000" stroke-width="0.75"/>
</svg>
