<svg width="46" height="47" viewBox="0 0 46 47" fill="none" xmlns="http://www.w3.org/2000/svg">
<circle cx="23" cy="23.5" r="19.5" fill="url(#paint0_linear_86_1490)" stroke="#EBFAF3" stroke-width="7"/>
<path d="M23 16.5C24.5913 16.5 26.1174 17.1321 27.2426 18.2574C28.3679 19.3826 29 20.9087 29 22.5C29 24.984 27.1067 27.5867 23.4 30.3667C23.2846 30.4532 23.1442 30.5 23 30.5C22.8558 30.5 22.7154 30.4532 22.6 30.3667C18.8933 27.5867 17 24.984 17 22.5C17 20.9087 17.6321 19.3826 18.7574 18.2574C19.8826 17.1321 21.4087 16.5 23 16.5ZM23 20.5C22.4696 20.5 21.9609 20.7107 21.5858 21.0858C21.2107 21.4609 21 21.9696 21 22.5C21 23.0304 21.2107 23.5391 21.5858 23.9142C21.9609 24.2893 22.4696 24.5 23 24.5C23.5304 24.5 24.0391 24.2893 24.4142 23.9142C24.7893 23.5391 25 23.0304 25 22.5C25 21.9696 24.7893 21.4609 24.4142 21.0858C24.0391 20.7107 23.5304 20.5 23 20.5Z" fill="white"/>
<defs>
<linearGradient id="paint0_linear_86_1490" x1="7" y1="23" x2="39" y2="23.5" gradientUnits="userSpaceOnUse">
<stop stop-color="#12E181"/>
<stop offset="1" stop-color="#12C170"/>
</linearGradient>
</defs>
</svg>
