<svg width="23" height="20" viewBox="0 0 23 20" fill="none" xmlns="http://www.w3.org/2000/svg">
<path d="M22.4599 4.0986C22.1135 3.29655 21.614 2.56975 20.9894 1.95886C20.3644 1.34616 19.6275 0.85925 18.8187 0.524616C17.9801 0.176245 17.0806 -0.002072 16.1724 1.81642e-05C14.8984 1.81642e-05 13.6554 0.348889 12.5752 1.00787C12.3168 1.1655 12.0713 1.33865 11.8387 1.5273C11.6061 1.33865 11.3606 1.1655 11.1022 1.00787C10.022 0.348889 8.77897 1.81642e-05 7.50495 1.81642e-05C6.58755 1.81642e-05 5.69857 0.175746 4.8587 0.524616C4.04725 0.860566 3.31592 1.34382 2.68795 1.95886C2.06256 2.56906 1.56298 3.29604 1.21752 4.0986C0.858315 4.93331 0.674835 5.8197 0.674835 6.73193C0.674835 7.59248 0.850563 8.4892 1.19943 9.40144C1.49145 10.1638 1.9101 10.9546 2.44503 11.7531C3.29266 13.0168 4.45814 14.3347 5.90531 15.6708C8.30347 17.8855 10.6784 19.4153 10.7792 19.4773L11.3916 19.8701C11.663 20.0433 12.0118 20.0433 12.2832 19.8701L12.8956 19.4773C12.9964 19.4127 15.3688 17.8855 17.7695 15.6708C19.2167 14.3347 20.3822 13.0168 21.2298 11.7531C21.7647 10.9546 22.1859 10.1638 22.4754 9.40144C22.8242 8.4892 23 7.59248 23 6.73193C23.0026 5.8197 22.8191 4.93331 22.4599 4.0986ZM11.8387 17.826C11.8387 17.826 2.63885 11.9314 2.63885 6.73193C2.63885 4.0986 4.81735 1.96403 7.50495 1.96403C9.39402 1.96403 11.0324 3.0184 11.8387 4.5586C12.645 3.0184 14.2834 1.96403 16.1724 1.96403C18.86 1.96403 21.0385 4.0986 21.0385 6.73193C21.0385 11.9314 11.8387 17.826 11.8387 17.826Z" fill="#000"/>
</svg>
