<svg width="16" height="19" viewBox="0 0 16 19" fill="none" xmlns="http://www.w3.org/2000/svg">
<path d="M10.5342 12.4233H6.43473C5.89111 12.4233 5.36975 12.6279 4.98536 12.992C4.60096 13.3562 4.38501 13.8501 4.38501 14.3651V15.6597H5.75149V14.3651C5.75149 14.1935 5.82347 14.0288 5.9516 13.9074C6.07974 13.786 6.25352 13.7178 6.43473 13.7178H10.5342C10.7154 13.7178 10.8891 13.786 11.0173 13.9074C11.1454 14.0288 11.2174 14.1935 11.2174 14.3651V15.6597H12.5839V14.3651C12.5839 13.8501 12.3679 13.3562 11.9835 12.992C11.5991 12.6279 11.0778 12.4233 10.5342 12.4233ZM8.48444 11.776C9.02497 11.776 9.55336 11.6242 10.0028 11.3397C10.4522 11.0552 10.8025 10.6508 11.0094 10.1777C11.2162 9.70461 11.2703 9.18402 11.1649 8.68178C11.0594 8.17954 10.7991 7.71821 10.4169 7.35611C10.0347 6.99402 9.54776 6.74743 9.01761 6.64753C8.48747 6.54763 7.93797 6.5989 7.43859 6.79486C6.9392 6.99083 6.51237 7.32268 6.21207 7.74846C5.91177 8.17424 5.75149 8.67482 5.75149 9.18689C5.75149 9.87357 6.03942 10.5321 6.55195 11.0177C7.06448 11.5032 7.75962 11.776 8.48444 11.776ZM8.48444 7.89234C8.75471 7.89234 9.0189 7.96826 9.24362 8.11051C9.46833 8.25276 9.64348 8.45494 9.7469 8.69149C9.85033 8.92804 9.87739 9.18833 9.82466 9.43945C9.77194 9.69057 9.64179 9.92124 9.45069 10.1023C9.25958 10.2833 9.0161 10.4066 8.75103 10.4566C8.48596 10.5065 8.2112 10.4809 7.96151 10.3829C7.71182 10.2849 7.49841 10.119 7.34826 9.90611C7.19811 9.69322 7.11796 9.44293 7.11796 9.18689C7.11796 8.84356 7.26193 8.51428 7.5182 8.2715C7.77446 8.02873 8.12203 7.89234 8.48444 7.89234Z" fill="black"/>
<path d="M14.6335 2.06684H12.5838V1.41956C12.5838 1.07622 12.4398 0.746944 12.1836 0.504167C11.9273 0.26139 11.5797 0.125 11.2173 0.125H5.75142C5.38901 0.125 5.04144 0.26139 4.78518 0.504167C4.52891 0.746944 4.38494 1.07622 4.38494 1.41956V2.06684H2.33523C1.97281 2.06684 1.62525 2.20323 1.36898 2.446C1.11272 2.68878 0.96875 3.01806 0.96875 3.36139V16.9542C0.96875 17.2976 1.11272 17.6269 1.36898 17.8696C1.62525 18.1124 1.97281 18.2488 2.33523 18.2488H14.6335C14.9959 18.2488 15.3435 18.1124 15.5998 17.8696C15.856 17.6269 16 17.2976 16 16.9542V3.36139C16 3.01806 15.856 2.68878 15.5998 2.446C15.3435 2.20323 14.9959 2.06684 14.6335 2.06684ZM5.75142 1.41956H11.2173V4.00867H5.75142V1.41956ZM14.6335 16.9542H2.33523V3.36139H4.38494V5.30323H12.5838V3.36139H14.6335V16.9542Z" fill="black"/>
</svg>
