<svg width="17" height="22" viewBox="0 0 17 22" fill="none" xmlns="http://www.w3.org/2000/svg">
<path d="M8.46399 5.97005C8.46399 5.97005 5.38899 6.27605 3.77899 4.93505C2.16899 3.59305 2.53599 1.03005 2.53599 1.03005C2.53599 1.03005 5.61099 0.724048 7.22199 2.06505C8.83199 3.40705 8.46399 5.97005 8.46399 5.97005Z" fill="#000" stroke="white" stroke-width="0.5" stroke-linecap="round" stroke-linejoin="round"/>
<path d="M8.536 5.97005C8.536 5.97005 11.611 6.27605 13.221 4.93505C14.831 3.59305 14.464 1.03005 14.464 1.03005C14.464 1.03005 11.389 0.724048 9.779 2.06505C8.169 3.40705 8.536 5.97005 8.536 5.97005ZM0.5 10C0.5 9.73483 0.605357 9.48048 0.792893 9.29294C0.98043 9.10541 1.23478 9.00005 1.5 9.00005H15.5C15.7652 9.00005 16.0196 9.10541 16.2071 9.29294C16.3946 9.48048 16.5 9.73483 16.5 10V12C16.5 12.2653 16.3946 12.5196 16.2071 12.7072C16.0196 12.8947 15.7652 13 15.5 13H1.5C1.23478 13 0.98043 12.8947 0.792893 12.7072C0.605357 12.5196 0.5 12.2653 0.5 12V10ZM1.5 13H15.5L13.5 21H3.5L1.5 13Z" fill="#000" stroke="white" stroke-width="0.5" stroke-linecap="round" stroke-linejoin="round"/>
</svg>
