<svg width="14" height="21" viewBox="0 0 14 21" fill="none" xmlns="http://www.w3.org/2000/svg">
<path d="M12.3333 7.94499V5.61165C12.3333 4.19717 11.7714 2.84061 10.7712 1.84042C9.77104 0.840224 8.41449 0.27832 7 0.27832C5.58551 0.27832 4.22896 0.840224 3.22876 1.84042C2.22857 2.84061 1.66667 4.19717 1.66667 5.61165V7.94499H0V13.2783C0 17.1381 3.14017 20.2783 7 20.2783C10.8598 20.2783 14 17.1381 14 13.2783V7.94499H12.3333ZM3 5.61165C3 4.55079 3.42143 3.53337 4.17157 2.78323C4.92172 2.03308 5.93913 1.61165 7 1.61165C8.06087 1.61165 9.07828 2.03308 9.82843 2.78323C10.5786 3.53337 11 4.55079 11 5.61165V7.94499H3V5.61165ZM12.6667 13.2783C12.6667 16.4029 10.1246 18.945 7 18.945C3.87542 18.945 1.33333 16.4029 1.33333 13.2783V9.27832H12.6667V13.2783Z" fill="black"/>
</svg>
