<svg width="16" height="17" viewBox="0 0 16 17" fill="none" xmlns="http://www.w3.org/2000/svg">
<path d="M14.324 12.7876H13.0429C12.9554 12.7876 12.8734 12.8259 12.8187 12.8933C12.6912 13.0482 12.5545 13.1977 12.4105 13.3398C11.8217 13.9292 11.1243 14.3989 10.3568 14.723C9.5616 15.0588 8.70694 15.2311 7.84376 15.2296C6.97086 15.2296 6.12529 15.0583 5.33075 14.723C4.56323 14.3989 3.86578 13.9292 3.27697 13.3398C2.68711 12.7524 2.21677 12.0562 1.892 11.2897C1.55486 10.4951 1.38538 9.65138 1.38538 8.77848C1.38538 7.90557 1.55668 7.06183 1.892 6.26729C2.21637 5.50008 2.68289 4.80942 3.27697 4.21716C3.87106 3.6249 4.56172 3.15838 5.33075 2.834C6.12529 2.49869 6.97086 2.32739 7.84376 2.32739C8.71666 2.32739 9.56223 2.49687 10.3568 2.834C11.1258 3.15838 11.8165 3.6249 12.4105 4.21716C12.5545 4.36112 12.6894 4.51055 12.8187 4.66363C12.8734 4.73106 12.9572 4.76933 13.0429 4.76933H14.324C14.4388 4.76933 14.5099 4.64176 14.4461 4.54518C13.0484 2.37295 10.6028 0.935121 7.82371 0.94241C3.45739 0.953344 -0.0433308 4.4978 0.000405388 8.85866C0.0441416 13.1503 3.53939 16.6145 7.84376 16.6145C10.6155 16.6145 13.0502 15.1785 14.4461 13.0118C14.5081 12.9152 14.4388 12.7876 14.324 12.7876ZM15.9441 8.66367L13.3582 6.62265C13.2616 6.54611 13.1213 6.61536 13.1213 6.73745V8.12243H7.39911C7.31893 8.12243 7.25332 8.18804 7.25332 8.26822V9.28873C7.25332 9.36891 7.31893 9.43452 7.39911 9.43452H13.1213V10.8195C13.1213 10.9416 13.2634 11.0108 13.3582 10.9343L15.9441 8.89328C15.9615 8.87965 15.9756 8.86222 15.9853 8.84233C15.995 8.82244 16 8.8006 16 8.77848C16 8.75635 15.995 8.73451 15.9853 8.71462C15.9756 8.69473 15.9615 8.67731 15.9441 8.66367Z" fill="#F75555"/>
</svg>
