<svg width="35" height="28" viewBox="0 0 35 28" fill="none" xmlns="http://www.w3.org/2000/svg">
<path d="M6.36911 27.5198V25.7173C6.36911 25.0262 5.94843 24.5757 5.22734 24.5757C4.86687 24.5757 4.47629 24.6959 4.20586 25.0864C3.99566 24.7559 3.69526 24.5757 3.2446 24.5757C2.94407 24.5757 2.64381 24.6657 2.40336 24.9963V24.6358H1.77246V27.5198H2.40336V25.9275C2.40336 25.4169 2.67378 25.1765 3.09447 25.1765C3.51489 25.1765 3.72537 25.4469 3.72537 25.9275V27.5198H4.35627V25.9275C4.35627 25.4169 4.65652 25.1765 5.0471 25.1765C5.46779 25.1765 5.678 25.4469 5.678 25.9275V27.5198H6.36911ZM15.7123 24.6358H14.6909V23.7646H14.06V24.6358H13.4892V25.2065H14.0599V26.5285C14.0599 27.1895 14.3303 27.5799 15.0514 27.5799C15.3218 27.5799 15.6221 27.4899 15.8326 27.3697L15.6522 26.8289C15.472 26.949 15.2618 26.9791 15.1115 26.9791C14.8111 26.9791 14.6909 26.7989 14.6909 26.4984V25.2065H15.7123V24.6358ZM21.06 24.5756C20.6995 24.5756 20.4592 24.7559 20.3089 24.9963V24.6358H19.678V27.5198H20.3089V25.8976C20.3089 25.4169 20.5191 25.1465 20.9097 25.1465C21.0299 25.1465 21.1801 25.1766 21.3003 25.2066L21.4805 24.6058C21.3604 24.5757 21.1801 24.5757 21.06 24.5757V24.5756ZM12.9785 24.8761C12.6779 24.6657 12.2574 24.5757 11.8067 24.5757C11.0858 24.5757 10.6052 24.9362 10.6052 25.507C10.6052 25.9878 10.9656 26.258 11.5965 26.3482L11.8969 26.3783C12.2274 26.4383 12.4077 26.5285 12.4077 26.6787C12.4077 26.8889 12.1673 27.0392 11.7467 27.0392C11.3261 27.0392 10.9956 26.8889 10.7853 26.7388L10.4849 27.2194C10.8154 27.4598 11.266 27.5799 11.7166 27.5799C12.5578 27.5799 13.0386 27.1895 13.0386 26.6486C13.0386 26.1379 12.648 25.8675 12.0471 25.7774L11.7467 25.7473C11.4762 25.7172 11.266 25.6573 11.266 25.477C11.266 25.2667 11.4762 25.1465 11.8067 25.1465C12.1673 25.1465 12.5278 25.2966 12.7081 25.3868L12.9785 24.8761ZM29.7424 24.5757C29.3818 24.5757 29.1415 24.7559 28.9912 24.9963V24.6358H28.3603V27.5198H28.9912V25.8976C28.9912 25.4169 29.2016 25.1465 29.592 25.1465C29.7123 25.1465 29.8626 25.1766 29.9827 25.2066L30.163 24.6058C30.0428 24.5757 29.8626 24.5757 29.7424 24.5757ZM21.6909 26.0778C21.6909 26.949 22.2917 27.5799 23.2231 27.5799C23.6437 27.5799 23.944 27.4899 24.2444 27.2496L23.944 26.7388C23.7037 26.9191 23.4634 27.0091 23.193 27.0091C22.6823 27.0091 22.3218 26.6486 22.3218 26.0778C22.3218 25.5371 22.6823 25.1765 23.193 25.1465C23.4634 25.1465 23.7037 25.2366 23.944 25.4169L24.2444 24.9062C23.944 24.6657 23.6437 24.5757 23.2231 24.5757C22.2917 24.5757 21.6909 25.2066 21.6909 26.0778ZM27.5192 26.0778V24.6358H26.8883V24.9963C26.678 24.726 26.3776 24.5757 25.987 24.5757C25.1759 24.5757 24.545 25.2066 24.545 26.0778C24.545 26.949 25.1759 27.5799 25.987 27.5799C26.4076 27.5799 26.7081 27.4298 26.8883 27.1594V27.5198H27.5192V26.0778ZM25.2058 26.0778C25.2058 25.5671 25.5363 25.1465 26.0771 25.1465C26.5878 25.1465 26.9484 25.5371 26.9484 26.0778C26.9484 26.5885 26.5878 27.0091 26.0771 27.0091C25.5363 26.979 25.2058 26.5885 25.2058 26.0778ZM17.6652 24.5757C16.8239 24.5757 16.223 25.1765 16.223 26.0778C16.223 26.9791 16.8238 27.5799 17.6952 27.5799C18.1157 27.5799 18.5364 27.4598 18.8669 27.1895L18.5664 26.7388C18.3261 26.9191 18.0257 27.0392 17.7253 27.0392C17.3347 27.0392 16.9441 26.859 16.8539 26.3481H18.9871V26.1079C19.0172 25.1765 18.4763 24.5757 17.665 24.5757H17.6652ZM17.6652 25.1164C18.0556 25.1164 18.3262 25.3569 18.3861 25.8075H16.884C16.9441 25.4169 17.2145 25.1164 17.6652 25.1164ZM33.3175 26.0778V23.4941H32.6866V24.9963C32.4762 24.726 32.1758 24.5757 31.7852 24.5757C30.9741 24.5757 30.3432 25.2066 30.3432 26.0778C30.3432 26.949 30.9741 27.5799 31.7852 27.5799C32.2059 27.5799 32.5063 27.4298 32.6866 27.1594V27.5198H33.3175V26.0778ZM31.0042 26.0778C31.0042 25.5671 31.3346 25.1465 31.8754 25.1465C32.3862 25.1465 32.7466 25.5371 32.7466 26.0778C32.7466 26.5885 32.3862 27.0091 31.8754 27.0091C31.3346 26.979 31.0042 26.5885 31.0042 26.0778ZM9.91405 26.0778V24.6358H9.28315V24.9963C9.0728 24.726 8.77241 24.5757 8.38183 24.5757C7.57069 24.5757 6.9398 25.2066 6.9398 26.0778C6.9398 26.949 7.57069 27.5799 8.38183 27.5799C8.80252 27.5799 9.10291 27.4298 9.28315 27.1594V27.5198H9.91405V26.0778ZM7.57069 26.0778C7.57069 25.5671 7.9012 25.1465 8.44191 25.1465C8.95265 25.1465 9.31326 25.5371 9.31326 26.0778C9.31326 26.5885 8.95265 27.0091 8.44191 27.0091C7.9012 26.979 7.57069 26.5885 7.57069 26.0778Z" fill="#212121"/>
<path d="M12.7681 2.73438H22.2315V19.7386H12.7681V2.73438Z" fill="#FF5F00"/>
<path d="M13.3691 11.2363C13.3691 7.78146 14.9914 4.71702 17.4849 2.73414C15.6524 1.29211 13.3392 0.420898 10.8156 0.420898C4.83683 0.420898 0 5.25773 0 11.2363C0 17.2148 4.83683 22.0518 10.8154 22.0518C13.339 22.0518 15.6523 21.1806 17.4849 19.7384C14.9914 17.7856 13.3691 14.6912 13.3691 11.2363Z" fill="#EB001B"/>
<path d="M35 11.2363C35 17.2148 30.1632 22.0518 24.1846 22.0518C21.661 22.0518 19.3477 21.1806 17.5151 19.7384C20.0387 17.7557 21.631 14.6912 21.631 11.2363C21.631 7.78146 20.0086 4.71702 17.5151 2.73414C19.3476 1.29211 21.661 0.420898 24.1846 0.420898C30.1632 0.420898 35.0002 5.28784 35.0002 11.2363H35Z" fill="#F79E1B"/>
</svg>
