<svg width="10" height="10" viewBox="0 0 10 10" fill="none" xmlns="http://www.w3.org/2000/svg">
<path fill-rule="evenodd" clip-rule="evenodd" d="M5.9791 5.24595C5.90788 5.03198 5.77599 4.84673 5.60157 4.71571C5.42716 4.58468 5.21881 4.51432 5.0052 4.51432V4.23999H4.48882V4.51432C4.21491 4.51432 3.95223 4.62993 3.75854 4.83571C3.56486 5.0415 3.45605 5.32061 3.45605 5.61163C3.45605 5.90266 3.56486 6.18176 3.75854 6.38755C3.95223 6.59334 4.21491 6.70895 4.48882 6.70895V7.80626C4.26419 7.80626 4.07287 7.65401 4.00161 7.44058C3.99104 7.40566 3.97398 7.37335 3.95145 7.34556C3.92892 7.31777 3.90138 7.29506 3.87044 7.27878C3.83951 7.26249 3.80581 7.25297 3.77135 7.25076C3.73689 7.24856 3.70237 7.25372 3.66982 7.26593C3.63726 7.27815 3.60735 7.29719 3.58184 7.3219C3.55634 7.34662 3.53575 7.37652 3.52131 7.40984C3.50687 7.44316 3.49886 7.47921 3.49777 7.51587C3.49667 7.55253 3.5025 7.58906 3.51492 7.62328C3.58614 7.83725 3.71804 8.0225 3.89245 8.15353C4.06686 8.28455 4.27522 8.35491 4.48882 8.35492V8.62924H5.0052V8.35492C5.27911 8.35492 5.5418 8.23931 5.73548 8.03352C5.92916 7.82773 6.03797 7.54863 6.03797 7.2576C6.03797 6.96658 5.92916 6.68747 5.73548 6.48169C5.5418 6.2759 5.27911 6.16029 5.0052 6.16029V5.06298C5.11199 5.06295 5.21617 5.0981 5.30338 5.16359C5.39058 5.22908 5.45654 5.32169 5.49215 5.42866C5.51495 5.49726 5.56248 5.55344 5.62426 5.58482C5.65485 5.60036 5.68803 5.60935 5.72189 5.61126C5.75575 5.61318 5.78963 5.60799 5.8216 5.596C5.85358 5.584 5.88301 5.56543 5.90823 5.54134C5.93345 5.51726 5.95396 5.48814 5.96858 5.45563C5.98321 5.42313 5.99167 5.38788 5.99347 5.3519C5.99527 5.31593 5.99039 5.27992 5.9791 5.24595ZM4.48882 5.06298C4.35187 5.06298 4.22052 5.12078 4.12368 5.22367C4.02684 5.32657 3.97244 5.46612 3.97244 5.61163C3.97244 5.75715 4.02684 5.8967 4.12368 5.99959C4.22052 6.10248 4.35187 6.16029 4.48882 6.16029V5.06298ZM5.0052 7.80626C5.14216 7.80626 5.2735 7.74846 5.37034 7.64556C5.46718 7.54267 5.52159 7.40312 5.52159 7.2576C5.52159 7.11209 5.46718 6.97254 5.37034 6.86964C5.2735 6.76675 5.14216 6.70895 5.0052 6.70895V7.80626Z" fill="#000"/>
<path fill-rule="evenodd" clip-rule="evenodd" d="M1.94655 0.844015C2.58016 0.514546 3.61964 0.125 4.75723 0.125C5.87106 0.125 6.88318 0.498361 7.51342 0.82344L7.54905 0.84182C7.73908 0.941676 7.89245 1.03604 8.00037 1.11258L7.04661 2.59396C9.24537 4.98226 10.9438 10 4.75723 10C-1.4293 10 0.223385 5.07334 2.44125 2.59396L1.49369 1.11258C1.56676 1.06183 1.65945 1.00285 1.76995 0.940304C1.82469 0.909031 1.88356 0.87666 1.94655 0.844015ZM6.43366 2.5742L7.19714 1.38828C6.48711 1.4426 5.64231 1.61982 4.829 1.87C4.24807 2.04832 3.60259 2.02116 3.00488 1.90402C2.85426 1.87435 2.70467 1.83903 2.5564 1.79813L3.05213 2.57366C4.11459 2.97555 5.37095 2.97555 6.43366 2.5742ZM2.75392 3.04111C3.99711 3.55136 5.49127 3.55136 6.73446 3.04056C7.25339 3.62178 7.68749 4.28228 8.02232 5.00009C8.37139 5.75669 8.56142 6.51301 8.53044 7.16482C8.50049 7.79385 8.2676 8.33126 7.73572 8.73068C7.18139 9.14684 6.24906 9.45134 4.75697 9.45134C3.26333 9.45134 2.32661 9.15205 1.76711 8.74056C1.23136 8.34607 0.996152 7.81607 0.962845 7.19554C0.92799 6.55087 1.11389 5.79839 1.46167 5.03658C1.79345 4.31015 2.25638 3.61089 2.75392 3.04111ZM2.457 1.19927C2.66355 1.26456 2.8794 1.32135 3.09835 1.36442C3.65346 1.47305 4.21012 1.48896 4.68519 1.34274C5.23881 1.17138 5.80188 1.03661 6.37118 0.939207C5.89611 0.787229 5.34048 0.673657 4.75697 0.673657C3.8675 0.673657 3.03793 0.937287 2.457 1.19927Z" fill="#000"/>
</svg>
