<svg width="16" height="17" viewBox="0 0 16 17" fill="none" xmlns="http://www.w3.org/2000/svg">
<path d="M11.42 14.6625L14.2 11.73L13.36 10.8375L11.42 12.8563L10.64 12.0275L9.8 12.9413L11.42 14.6625ZM2.4 5.1H12V3.4H2.4V5.1ZM12 17C10.8933 17 9.94987 16.5855 9.1696 15.7565C8.38933 14.9274 7.99947 13.9253 8 12.75C8 11.5742 8.39013 10.5717 9.1704 9.7427C9.95067 8.91367 10.8939 8.49943 12 8.5C13.1067 8.5 14.0501 8.91452 14.8304 9.74355C15.6107 10.5726 16.0005 11.5747 16 12.75C16 13.9258 15.6099 14.9283 14.8296 15.7573C14.0493 16.5863 13.1061 17.0006 12 17ZM0 16.15V1.7C0 1.2325 0.1568 0.832151 0.4704 0.498951C0.784 0.165751 1.16053 -0.000565223 1.6 1.44312e-06H12.8C13.24 1.44312e-06 13.6168 0.166601 13.9304 0.499801C14.244 0.833001 14.4005 1.23307 14.4 1.7V7.37375C14.1467 7.24625 13.8867 7.14 13.62 7.055C13.3533 6.97 13.08 6.90625 12.8 6.86375V1.7H1.6V13.6425H6.46C6.52667 14.0817 6.63013 14.4996 6.7704 14.8962C6.91067 15.2929 7.09387 15.6683 7.32 16.0225L7.2 16.15L6 14.875L4.8 16.15L3.6 14.875L2.4 16.15L1.2 14.875L0 16.15ZM2.4 11.9H6.46C6.5 11.6025 6.56 11.3121 6.64 11.0288C6.72 10.7454 6.82 10.4692 6.94 10.2H2.4V11.9ZM2.4 8.5H8.08C8.58667 7.97583 9.1768 7.56132 9.8504 7.25645C10.524 6.95158 11.2405 6.79943 12 6.8H2.4V8.5Z" fill="#000"/>
</svg>
