<svg width="16" height="17" viewBox="0 0 16 17" fill="none" xmlns="http://www.w3.org/2000/svg">
<path d="M7.99932 4.69434C7.86672 4.69434 7.73955 4.74701 7.64579 4.84077C7.55203 4.93453 7.49936 5.0617 7.49936 5.19429V9.55393L10.4491 11.5538C10.5598 11.6241 10.6937 11.6481 10.822 11.6206C10.9502 11.5931 11.0625 11.5163 11.1347 11.4067C11.2068 11.2972 11.233 11.1637 11.2077 11.035C11.1823 10.9063 11.1074 10.7928 10.9991 10.7188L8.49927 9.02397V5.19429C8.49927 5.0617 8.4466 4.93453 8.35284 4.84077C8.25908 4.74701 8.13191 4.69434 7.99932 4.69434Z" fill="#212121"/>
<path d="M7.99932 0.779297C6.57107 0.784298 5.1699 1.16947 3.93978 1.89524C2.70966 2.62101 1.69495 3.66121 0.999915 4.90895V2.37916C0.999915 2.24656 0.947242 2.1194 0.853481 2.02564C0.759721 1.93188 0.632555 1.8792 0.499958 1.8792C0.367361 1.8792 0.240194 1.93188 0.146434 2.02564C0.0526739 2.1194 0 2.24656 0 2.37916V6.77879H4.39963C4.53223 6.77879 4.65939 6.72612 4.75315 6.63236C4.84691 6.5386 4.89959 6.41143 4.89959 6.27883C4.89959 6.14624 4.84691 6.01907 4.75315 5.92531C4.65939 5.83155 4.53223 5.77887 4.39963 5.77887H1.67486C2.30542 4.44808 3.33966 3.35008 4.63038 2.6411C5.92111 1.93213 7.40256 1.64832 8.86393 1.83005C10.3253 2.01179 11.6921 2.64981 12.7699 3.65332C13.8476 4.65684 14.5814 5.97472 14.8668 7.41942C15.1522 8.86412 14.9747 10.362 14.3595 11.7C13.7443 13.038 12.7228 14.1478 11.4403 14.8716C10.1579 15.5954 8.67977 15.8962 7.21641 15.7314C5.75305 15.5665 4.37897 14.9442 3.28972 13.9532C3.24114 13.9089 3.1843 13.8746 3.12245 13.8522C3.06061 13.8299 2.99496 13.8199 2.92927 13.8229C2.86358 13.8259 2.79913 13.8419 2.73959 13.8698C2.68005 13.8977 2.6266 13.9371 2.58228 13.9857C2.53796 14.0343 2.50365 14.0911 2.4813 14.153C2.45895 14.2148 2.449 14.2804 2.45201 14.3461C2.45503 14.4118 2.47096 14.4763 2.49889 14.5358C2.52681 14.5954 2.56619 14.6488 2.61478 14.6931C3.57577 15.5682 4.73553 16.196 5.9937 16.5221C7.25187 16.8482 8.57054 16.8628 9.83563 16.5646C11.1007 16.2665 12.2741 15.6646 13.2542 14.811C14.2344 13.9574 14.9918 12.8778 15.4609 11.6657C15.9299 10.4535 16.0966 9.14533 15.9464 7.8543C15.7962 6.56326 15.3337 5.32827 14.5989 4.25618C13.8641 3.18409 12.8791 2.3072 11.7292 1.70138C10.5793 1.09557 9.29906 0.779078 7.99932 0.779297Z" fill="#212121"/>
</svg>
