<svg width="18" height="18" viewBox="0 0 18 18" fill="none" xmlns="http://www.w3.org/2000/svg">
<path d="M4.2 4.91016H7.4" stroke="black" stroke-width="1.5" stroke-linecap="round" stroke-linejoin="round"/>
<path d="M16.0664 5.8877H13.9848C12.5568 5.8877 11.4 7.20048 11.4 8.8202C11.4 10.4399 12.5576 11.7527 13.984 11.7527H16.0664C16.1336 11.7527 16.1664 11.7527 16.1944 11.7507C16.6264 11.7185 16.9704 11.3285 16.9984 10.8387C17 10.8075 17 10.7693 17 10.6941V6.94633C17 6.87106 17 6.83294 16.9984 6.80166C16.9696 6.31193 16.6264 5.92191 16.1944 5.88965C16.1672 5.8877 16.1336 5.8877 16.0664 5.8877Z" stroke="black" stroke-width="1.5"/>
<path d="M16.172 5.8875C16.1096 4.05762 15.9096 2.93545 15.2624 2.14563C14.3256 1 12.8168 1 9.8 1H7.4C4.3832 1 2.8744 1 1.9376 2.14563C1 3.29028 1 5.13385 1 8.82C1 12.5062 1 14.3497 1.9376 15.4944C2.8744 16.64 4.3832 16.64 7.4 16.64H9.8C12.8168 16.64 14.3256 16.64 15.2624 15.4944C15.9096 14.7045 16.1104 13.5824 16.172 11.7525" stroke="black" stroke-width="1.5"/>
<path d="M13.7928 8.81982H13.8008" stroke="black" stroke-width="2" stroke-linecap="round" stroke-linejoin="round"/>
</svg>
