<svg width="6" height="8" viewBox="0 0 6 8" fill="none" xmlns="http://www.w3.org/2000/svg">
<path d="M2.73839 0.860352H3.26165C3.30816 0.860352 3.33142 0.883607 3.33142 0.930119V7.06965C3.33142 7.11617 3.30816 7.13942 3.26165 7.13942H2.73839C2.69188 7.13942 2.66862 7.11617 2.66862 7.06965V0.930119C2.66862 0.883607 2.69188 0.860352 2.73839 0.860352Z" fill="#01B763"/>
<path d="M0.0697674 3.66846H5.93023C5.97674 3.66846 6 3.69171 6 3.73822V4.26148C6 4.30799 5.97674 4.33125 5.93023 4.33125H0.0697674C0.0232558 4.33125 0 4.30799 0 4.26148V3.73822C0 3.69171 0.0232558 3.66846 0.0697674 3.66846Z" fill="#01B763"/>
</svg>
