<svg width="21" height="20" viewBox="0 0 21 20" fill="none" xmlns="http://www.w3.org/2000/svg">
<path d="M18.95 18V15.25H20.45V18.5C20.45 18.8143 20.3234 19.103 20.0632 19.3632C19.803 19.6234 19.5143 19.75 19.2 19.75H15.95V18.25H18.7H18.95V18ZM2.70001 18.25H5.45001V19.75H2.20001C1.88569 19.75 1.59698 19.6234 1.33679 19.3632C1.0766 19.103 0.950012 18.8143 0.950012 18.5V15.25H2.45001V18V18.25H2.70001ZM18.7 1.75H15.95V0.25H19.2C19.5143 0.25 19.803 0.376587 20.0632 0.636777C20.3234 0.896966 20.45 1.18568 20.45 1.5V4.75H18.95V2V1.75H18.7ZM2.45001 2V4.75H0.950012V1.5C0.950012 1.18568 1.0766 0.896966 1.33679 0.636777C1.59698 0.376587 1.88569 0.25 2.20001 0.25H5.45001V1.75H2.70001H2.45001V2ZM12.7984 10.767L12.6922 10.9358L12.8332 11.0768L15.9165 14.16L14.86 15.2164L11.7768 12.1332L11.6358 11.9922L11.467 12.0983C10.8058 12.5139 10.0317 12.75 9.20001 12.75C6.83808 12.75 4.95001 10.8619 4.95001 8.5C4.95001 6.13807 6.83808 4.25 9.20001 4.25C11.5619 4.25 13.45 6.13807 13.45 8.5C13.45 9.33174 13.2139 10.1058 12.7984 10.767ZM9.20001 5.75C7.68194 5.75 6.45001 6.98193 6.45001 8.5C6.45001 10.0181 7.68194 11.25 9.20001 11.25C10.7181 11.25 11.95 10.0181 11.95 8.5C11.95 6.98193 10.7181 5.75 9.20001 5.75Z" stroke="#000" stroke-width="0.5"/>
</svg>
