<svg width="24" height="16" viewBox="0 0 24 16" fill="none" xmlns="http://www.w3.org/2000/svg">
<path d="M17.8 4C17.8 4 19.3 5.5 19.3 8C19.3 10.5 17.8 12 17.8 12M20.8 1C20.8 1 23.3 3.5 23.3 8C23.3 12.5 20.8 15 20.8 15M6.8 4C6.8 4 5.3 5.5 5.3 8C5.3 10.5 6.8 12 6.8 12M3.8 1C3.8 1 1.3 3.5 1.3 8C1.3 12.5 3.8 15 3.8 15" stroke="#9E9E9E" stroke-linecap="round" stroke-linejoin="round"/>
<path d="M12.3 9C12.5652 9 12.8196 8.89464 13.0071 8.70711C13.1946 8.51957 13.3 8.26522 13.3 8C13.3 7.73478 13.1946 7.48043 13.0071 7.29289C12.8196 7.10536 12.5652 7 12.3 7C12.0348 7 11.7804 7.10536 11.5929 7.29289C11.4054 7.48043 11.3 7.73478 11.3 8C11.3 8.26522 11.4054 8.51957 11.5929 8.70711C11.7804 8.89464 12.0348 9 12.3 9Z" fill="#9E9E9E" stroke="#9E9E9E" stroke-width="0.5" stroke-linecap="round" stroke-linejoin="round"/>
</svg>
