<svg width="14" height="14" viewBox="0 0 14 14" fill="none" xmlns="http://www.w3.org/2000/svg">
<path d="M13.6225 6.0598C13.7795 5.94286 13.8959 5.77973 13.9555 5.59327C14.0151 5.40681 14.0148 5.20639 13.9547 5.02009C13.8947 4.8338 13.7778 4.67098 13.6205 4.55446C13.4632 4.43794 13.2734 4.37358 13.0777 4.37038L9.27649 4.22678C9.2578 4.22549 9.23989 4.21882 9.2249 4.20758C9.20991 4.19634 9.19849 4.18101 9.19202 4.16343L7.8785 0.615646C7.8125 0.435148 7.69263 0.27929 7.53513 0.169173C7.37762 0.0590563 7.19007 0 6.99789 0C6.8057 0 6.61816 0.0590563 6.46065 0.169173C6.30314 0.27929 6.18327 0.435148 6.11728 0.615646L4.80798 4.1761C4.80151 4.19368 4.79009 4.20901 4.7751 4.22025C4.76012 4.23149 4.7422 4.23816 4.72351 4.23945L0.922316 4.38305C0.726599 4.38625 0.53679 4.45062 0.379503 4.56713C0.222216 4.68365 0.105338 4.84647 0.0452583 5.03276C-0.0148217 5.21906 -0.0150913 5.41948 0.0444874 5.60594C0.104066 5.7924 0.220505 5.95553 0.377478 6.07247L3.3593 8.41654C3.37423 8.42828 3.38538 8.44414 3.39138 8.46216C3.39739 8.48017 3.39798 8.49955 3.39309 8.5179L2.36677 12.1544C2.31359 12.3396 2.31874 12.5366 2.38153 12.7188C2.44431 12.9009 2.56169 13.0593 2.71768 13.1724C2.87368 13.2854 3.06072 13.3477 3.25336 13.3507C3.446 13.3537 3.63489 13.2973 3.79433 13.1891L6.94509 11.0774C6.96061 11.0667 6.97903 11.0609 6.99789 11.0609C7.01675 11.0609 7.03516 11.0667 7.05068 11.0774L10.2014 13.1891C10.3587 13.301 10.5469 13.3611 10.74 13.3611C10.933 13.3611 11.1212 13.301 11.2785 13.1891C11.4345 13.0771 11.552 12.9195 11.6148 12.738C11.6775 12.5565 11.6825 12.36 11.629 12.1755L10.5942 8.52635C10.5888 8.50803 10.5891 8.48847 10.5951 8.47032C10.6012 8.45218 10.6126 8.43635 10.628 8.42498L13.6225 6.0598ZM9.77909 8.7333L10.8139 12.3824C10.8223 12.4019 10.8238 12.4237 10.8181 12.4442C10.8124 12.4647 10.7999 12.4826 10.7826 12.4949C10.7653 12.5073 10.7443 12.5133 10.7231 12.5121C10.7019 12.5108 10.6818 12.5023 10.666 12.488L7.51527 10.3763C7.36068 10.2716 7.17825 10.2157 6.99155 10.2158V0.847941C7.01144 0.846327 7.03125 0.851803 7.04749 0.863398C7.06372 0.874994 7.07533 0.891961 7.08025 0.911294L8.39377 4.4633C8.4574 4.63836 8.57172 4.7905 8.72217 4.90033C8.87261 5.01015 9.05236 5.07268 9.23848 5.07994L13.0397 5.22354C13.0595 5.22322 13.079 5.22928 13.0952 5.24083C13.1114 5.25238 13.1234 5.26882 13.1295 5.28772C13.1357 5.30663 13.1356 5.327 13.1293 5.34586C13.123 5.36471 13.1108 5.38105 13.0946 5.39248L10.1128 7.73655C9.96347 7.84996 9.85179 8.00571 9.79228 8.18349C9.73277 8.36128 9.72817 8.55287 9.77909 8.7333Z" fill="#000"/>
</svg>
